<svg width="558" height="244" viewBox="0 0 558 244" fill="none" xmlns="http://www.w3.org/2000/svg">
<g clip-path="url(#clip0_1_643)">
<path d="M558.128 50.469C474.628 50.469 390.128 74.4691 377.128 113.469C364.128 152.469 410.628 172.469 429.628 161.469C448.628 150.469 464.628 121.469 447.128 99.969C429.628 78.469 377.628 40.969 346.628 50.469C315.628 59.969 294.128 154.969 225.128 153.469C156.128 151.969 110.628 119.469 124.128 64.969C137.628 10.469 245.808 38.9531 231.628 99.969C215.128 170.969 78.128 151.969 48.128 181.969C24.128 205.969 32.128 244.969 39.128 261.469" stroke="#7EBDC3" stroke-width="7"/>
<path d="M558 24.3373C470.394 24.3373 381.739 49.7777 368.099 91.1182C354.46 132.459 403.247 153.659 423.181 141.999C443.115 130.339 459.902 99.5982 441.542 76.808C423.181 54.0177 368.624 14.2672 336.1 24.3373C303.575 34.4074 281.018 135.109 208.625 133.519C136.232 131.929 88.4944 97.4782 102.658 39.7075C116.822 -18.0632 230.322 12.1303 215.444 76.8079C198.133 152.069 54.3964 131.929 22.9211 163.729C-2.25906 189.169 6.13434 230.51 13.4786 248" stroke="#CED097" stroke-width="7"/>
</g>
<defs>
<clipPath id="clip0_1_643">
<rect width="558" height="244" fill="white"/>
</clipPath>
</defs>
</svg>
