<svg width="24" height="24" viewBox="0 0 24 24" fill="none" xmlns="http://www.w3.org/2000/svg">
<path fill-rule="evenodd" clip-rule="evenodd" d="M7.7803 19.7611C7.28647 20.0084 6.68568 19.8086 6.43839 19.3147L2.40855 11.2673C2.16126 10.7735 2.36112 10.1727 2.85495 9.92543L8.00009 7.34894V7C8.00009 6.44772 8.4478 6 9.00009 6H15.0001C15.5524 6 16.0001 6.44772 16.0001 7V7.34894L21.1463 9.92599C21.6397 10.1731 21.8398 10.7731 21.5933 11.2668L17.8368 18.7918C17.5901 19.2859 16.9896 19.4865 16.4955 19.2399L12.6513 17.3149C11.8347 17.7267 10.2111 18.5421 7.7803 19.7611ZM16.9421 18.3452L20.6986 10.8201L16.0001 8.46731V16C16.0001 16.5523 15.5524 17 15.0001 17H14.2559L16.9421 18.3452ZM15.0001 16V7H9.00009V7.18991C9.23588 7.273 9.441 7.44407 9.56179 7.68527C12.297 13.1679 13.6702 15.9395 13.6813 16H15.0001ZM3.30271 10.8196L7.33254 18.867L12.6975 16.1804L8.66763 8.13303L3.30271 10.8196Z" fill="#000000"/>
</svg>
