<svg width="24" height="24" viewBox="0 0 24 24" fill="none" xmlns="http://www.w3.org/2000/svg">
<path fill-rule="evenodd" clip-rule="evenodd" d="M11.5 4C12.3284 4 13 4.67157 13 5.5V6.208L13.1929 6.26645C15.4021 6.97942 17 9.05311 17 11.5V14.382C17 15.0637 17.5141 15.4675 17.7236 15.5528C18.6312 16.0112 19 16.879 19 17.618V18.0001C19 18.5523 18.5523 19 18.0001 19.0001L13.9499 19.0004C13.7181 20.1413 12.7093 21 11.5 21C10.2907 21 9.2819 20.1413 9.0501 19.0004L4.99991 19.0001C4.44766 19 4 18.5523 4 18.0001V17.618C4 16.8017 4.43045 16.0509 5.12384 15.6364C5.70795 15.3547 6 14.9365 6 14.382V11.5C6 8.98221 7.69181 6.85957 10.0006 6.20685L10 5.5C10 4.67157 10.6716 4 11.5 4ZM12.9144 19.0007H10.0856C10.2917 19.5829 10.8472 20 11.5 20C12.1528 20 12.7083 19.5829 12.9144 19.0007ZM11.5 5C11.2239 5 11 5.22386 11 5.5L11.0003 7.02743C8.75018 7.27602 7 9.18362 7 11.5V14.382C7 15.1983 6.56955 15.9491 5.87616 16.3636L5.76098 16.4232C5.47658 16.5799 5 16.9239 5 17.618V18H18V17.618C18 16.9216 17.5177 16.5793 17.2764 16.4472C16.5954 16.1303 16 15.3188 16 14.382V11.5C16 9.18397 14.2503 7.27659 12.0007 7.02754L12 5.5C12 5.22386 11.7761 5 11.5 5Z" fill="#FEFDF6"/>
</svg>
