<svg width="24" height="24" viewBox="0 0 24 24" fill="none" xmlns="http://www.w3.org/2000/svg">
<path fill-rule="evenodd" clip-rule="evenodd" d="M19.2103 4.03095C19.5246 3.92616 19.8644 4.09606 19.9692 4.41043L19.9923 4.50405L20 4.60016V17.3227C20 17.654 19.7314 17.9227 19.4 17.9227L19.3039 17.9149L19.2103 17.8919L11.21 15.224L11.8059 18.797C11.8967 19.3418 11.5287 19.857 10.9839 19.9478C10.9296 19.9569 10.8746 19.9614 10.8195 19.9614H8.84713C8.35829 19.9614 7.9411 19.608 7.86073 19.1258L7.166 14.961L6.5 14.9614C5.22975 14.9614 4.18076 14.0141 4.02105 12.7873L4.00532 12.6258L4 12.4614V9.46142C4 8.13594 5.03154 7.05138 6.33562 6.96674L6.5 6.96142H10.416L19.2103 4.03095ZM8.84713 18.9614H10.8195L10.152 14.9614H8.18L8.84713 18.9614ZM19 5.15442L11 7.821V13.9614L11.024 14.109L19 16.7674V5.15442ZM10 13.9614V7.961L6.5 7.96142C5.7203 7.96142 5.07955 8.55631 5.00687 9.31696L5 9.46142V12.4614C5 13.2411 5.59489 13.8819 6.35554 13.9546L6.5 13.9614H10Z" fill="#FEFDF6"/>
</svg>
