<svg width="144" height="144" viewBox="0 0 144 144" fill="none" xmlns="http://www.w3.org/2000/svg">
<path d="M70.1086 1.6552L71.4505 12.4815L67.1792 13.0109C66.3616 13.1122 65.6457 13.0524 65.0315 12.8316C64.4142 12.6147 63.921 12.2589 63.5519 11.7643C63.1798 11.2737 62.9494 10.6707 62.8608 9.95528C62.7716 9.23635 62.8501 8.59863 63.096 8.04214C63.3423 7.48918 63.7427 7.03878 64.2972 6.69094C64.8481 6.34355 65.5395 6.11831 66.3712 6.01522L69.231 5.66076L69.459 7.50037L66.9692 7.80897C66.5322 7.86314 66.1767 7.96804 65.9025 8.12368C65.6284 8.27932 65.4357 8.4857 65.3244 8.74281C65.2096 9.00037 65.1743 9.30711 65.2184 9.66305C65.263 10.0225 65.3728 10.3166 65.5479 10.5454C65.7194 10.7746 65.9593 10.9346 66.2675 11.0252C66.5727 11.1198 66.9455 11.1397 67.386 11.0851L68.9296 10.8938L67.8197 1.93891L70.1086 1.6552ZM64.8727 7.30665L61.5713 2.71336L64.0982 2.40017L67.3414 7.00067L64.8727 7.30665Z" fill="black"/>
<path d="M52.3819 4.34866L56.4051 14.4888L49.5724 17.1997L48.8711 15.4321L53.5599 13.5718L52.6012 11.1556L48.264 12.8765L47.5627 11.1089L51.8999 9.38801L50.9393 6.96686L46.2307 8.83505L45.5294 7.06745L52.3819 4.34866Z" fill="black"/>
<path d="M42.9808 19.621L40.7177 21.3442L33.8871 17.3328L33.7854 17.4103L35.8356 25.0617L33.5725 26.7849L26.9636 18.1056L28.7435 16.7503L33.0451 22.3995L33.1172 22.3446L31.094 15.0275L32.306 14.1046L38.8376 18.0223L38.9096 17.9674L34.5919 12.297L36.3718 10.9417L42.9808 19.621Z" fill="black"/>
<path d="M18.4603 35.5093C17.5008 34.806 16.8178 34.0258 16.4114 33.1687C16.0029 32.3145 15.8499 31.445 15.9524 30.5603C16.0557 29.6806 16.3918 28.8526 16.9608 28.0764C17.5339 27.2945 18.2258 26.723 19.0366 26.3618C19.8473 26.0006 20.7214 25.8863 21.659 26.0188C22.5966 26.1513 23.5437 26.5681 24.5003 27.2693C25.4598 27.9727 26.1438 28.7514 26.5523 29.6057C26.9608 30.4599 27.1135 31.3269 27.0102 32.2066C26.9097 33.0885 26.5729 33.9203 25.9998 34.7022C25.4309 35.4784 24.741 36.0471 23.9303 36.4082C23.1203 36.7744 22.2466 36.8912 21.309 36.7587C20.3693 36.6291 19.4197 36.2126 18.4603 35.5093ZM19.8427 33.6233C20.4642 34.0789 21.0566 34.37 21.6198 34.4967C22.1809 34.6262 22.6946 34.6042 23.1607 34.4308C23.6269 34.2573 24.0248 33.9458 24.3544 33.4961C24.684 33.0464 24.8614 32.5732 24.8865 32.0765C24.9115 31.5797 24.779 31.0819 24.4887 30.5829C24.1963 30.0868 23.7393 29.6109 23.1178 29.1553C22.4963 28.6998 21.905 28.4072 21.3439 28.2777C20.7807 28.1511 20.266 28.1745 19.7998 28.3479C19.3337 28.5213 18.9358 28.8329 18.6062 29.2826C18.2766 29.7322 18.0992 30.2054 18.0741 30.7022C18.049 31.1989 18.1827 31.6954 18.475 32.1915C18.7653 32.6905 19.2212 33.1677 19.8427 33.6233Z" fill="black"/>
<path d="M18.4116 45.9083L9.72529 45.4652L9.68974 45.56L16.5216 50.9454L15.6234 53.3392L6.73079 45.9858L7.77498 43.203L19.3117 43.5095L18.4116 45.9083Z" fill="black"/>
<path d="M2.81558 57.9686L13.6699 59.0604L12.9342 66.3744L11.0421 66.184L11.547 61.165L8.9606 60.9048L8.49361 65.5476L6.60153 65.3573L7.06852 60.7145L4.47683 60.4538L3.96987 65.4941L2.07778 65.3038L2.81558 57.9686Z" fill="black"/>
<path d="M3.868 90.0339L3.03458 87.707L14.5746 87.5739L15.5769 90.3721L6.57484 97.5911L5.74141 95.2642L12.7433 89.8537L12.7145 89.7735L3.868 90.0339ZM7.85278 88.4425L9.82138 93.9387L8.1264 94.5458L6.1578 89.0496L7.85278 88.4425Z" fill="black"/>
<path d="M10.0189 105.766L18.9795 99.5437L21.4343 103.079C21.9043 103.756 22.1842 104.417 22.2743 105.064C22.3693 105.711 22.2837 106.313 22.0175 106.87C21.7562 107.427 21.3295 107.912 20.7373 108.323C20.1423 108.736 19.5413 108.963 18.9343 109.004C18.3301 109.043 17.7452 108.898 17.1794 108.569C16.6157 108.243 16.0948 107.736 15.6168 107.047L13.9731 104.68L15.4957 103.623L16.9267 105.684C17.1779 106.045 17.4361 106.311 17.7014 106.482C17.9666 106.652 18.2389 106.727 18.5183 106.706C18.7997 106.687 19.0877 106.576 19.3823 106.372C19.6798 106.165 19.8891 105.931 20.0103 105.67C20.1334 105.411 20.1635 105.124 20.1003 104.809C20.0422 104.495 19.8865 104.156 19.6333 103.791L18.7462 102.514L11.3344 107.66L10.0189 105.766ZM17.4569 107.773L14.9256 112.832L13.4734 110.741L16.0381 105.73L17.4569 107.773Z" fill="black"/>
<path d="M26.1494 113.174L27.3876 111.731L34.1876 117.565L32.9494 119.008L30.4145 116.833L24.5495 123.67L22.8192 122.185L28.6842 115.349L26.1494 113.174Z" fill="black"/>
<path d="M46.1217 137.47L49.0549 126.962L56.0119 128.904L55.5006 130.736L50.7651 129.414L50.0662 131.918L54.3399 133.111L53.8286 134.942L49.5549 133.749L48.3432 138.09L46.1217 137.47Z" fill="black"/>
<path d="M62.6355 141.735L62.8881 130.829L67.1909 130.929C68.0146 130.948 68.7141 131.111 69.2895 131.42C69.8685 131.724 70.3045 132.148 70.5974 132.691C70.8939 133.231 71.0338 133.861 71.0171 134.582C71.0004 135.306 70.8297 135.926 70.5052 136.44C70.1808 136.951 69.7189 137.338 69.1196 137.602C68.5239 137.865 67.8071 137.987 66.9693 137.967L64.0883 137.901L64.1312 136.047L66.6394 136.106C67.0796 136.116 67.4467 136.064 67.7406 135.95C68.0345 135.836 68.2553 135.66 68.4029 135.422C68.554 135.184 68.6338 134.885 68.6421 134.527C68.6505 134.165 68.5848 133.858 68.445 133.606C68.3087 133.354 68.0947 133.161 67.803 133.026C67.5149 132.888 67.149 132.814 66.7053 132.804L65.1503 132.768L64.9413 141.789L62.6355 141.735ZM68.6402 136.908L71.2358 141.934L68.6903 141.875L66.1533 136.851L68.6402 136.908Z" fill="black"/>
<path d="M89.1603 134.115C89.4496 135.269 89.477 136.306 89.2425 137.225C89.0114 138.143 88.574 138.91 87.9302 139.525C87.2889 140.136 86.5016 140.559 85.5681 140.793C84.6277 141.029 83.7303 141.027 82.8757 140.787C82.0212 140.547 81.2754 140.077 80.6385 139.376C80.0015 138.676 79.5388 137.75 79.2504 136.6C78.9611 135.446 78.932 134.41 79.163 133.491C79.3941 132.573 79.8303 131.808 80.4715 131.197C81.1119 130.583 81.9022 130.158 82.8426 129.922C83.7761 129.688 84.6701 129.691 85.5246 129.931C86.3817 130.166 87.1288 130.634 87.7657 131.335C88.4061 132.034 88.871 132.961 89.1603 134.115ZM86.8921 134.684C86.7047 133.936 86.4347 133.334 86.0821 132.877C85.733 132.419 85.3237 132.108 84.8542 131.944C84.3847 131.78 83.8795 131.765 83.3387 131.901C82.7979 132.036 82.3593 132.287 82.0228 132.654C81.6863 133.02 81.4704 133.488 81.3752 134.057C81.2834 134.626 81.3312 135.284 81.5186 136.031C81.706 136.779 81.9743 137.381 82.3234 137.839C82.676 138.296 83.087 138.607 83.5565 138.771C84.026 138.935 84.5312 138.95 85.072 138.814C85.6128 138.678 86.0514 138.428 86.3879 138.061C86.7244 137.695 86.9386 137.228 87.0304 136.659C87.1256 136.09 87.0795 135.431 86.8921 134.684Z" fill="black"/>
<path d="M94.5097 127.182L96.948 125.717L103.298 130.453L103.407 130.387L102.208 122.557L104.647 121.093L110.264 130.444L108.346 131.596L104.69 125.51L104.612 125.556L105.821 133.051L104.515 133.835L98.4526 129.225L98.375 129.272L102.045 135.381L100.127 136.534L94.5097 127.182Z" fill="black"/>
<path d="M119.039 111.18L117.434 110.159L122.244 102.6L123.848 103.621L122.055 106.439L129.655 111.274L128.431 113.197L120.831 108.362L119.039 111.18Z" fill="black"/>
<path d="M136.133 100.32L125.744 96.9917L127.057 92.893C127.308 92.1084 127.663 91.4837 128.121 91.019C128.578 90.5499 129.107 90.2517 129.711 90.1245C130.313 89.9928 130.957 90.0369 131.643 90.2568C132.333 90.4778 132.879 90.8168 133.281 91.2736C133.679 91.7294 133.92 92.282 134.003 92.9312C134.087 93.5771 134.001 94.2991 133.745 95.0972L132.866 97.8416L131.101 97.276L131.866 94.8868C132 94.4674 132.054 94.1007 132.028 93.7865C132.002 93.4724 131.896 93.2108 131.709 93.0019C131.524 92.7896 131.26 92.6287 130.919 92.5192C130.574 92.4087 130.261 92.3849 129.979 92.4477C129.699 92.5071 129.453 92.6577 129.242 92.8994C129.028 93.1366 128.853 93.4666 128.718 93.8893L128.243 95.3705L136.836 98.1236L136.133 100.32ZM133.202 93.195L138.757 92.1276L137.98 94.5524L132.443 95.5639L133.202 93.195Z" fill="black"/>
<path d="M141.315 81.3537L141.191 83.8221L130.485 79.5139L130.634 76.5453L141.718 73.3364L141.594 75.8049L133.051 78.112L133.047 78.1972L141.315 81.3537ZM137.025 81.2929L137.317 75.4622L139.116 75.5525L138.823 81.3832L137.025 81.2929Z" fill="black"/>
<path d="M130.319 63.9821L141.051 62.0202L141.465 64.289L130.734 66.2509L130.319 63.9821Z" fill="black"/>
<path d="M125.395 47.2247L135.41 42.9001L136.2 44.7291L131.778 51.8082L131.809 51.8816L138.113 49.1597L139.027 51.2772L129.012 55.6018L128.209 53.7435L132.642 46.7007L132.604 46.6127L126.305 49.3324L125.395 47.2247Z" fill="black"/>
<path d="M120.902 39.1237L129.676 32.6422L131.047 34.4974L122.272 40.979L120.902 39.1237Z" fill="black"/>
<path d="M109.072 26.1833L116.175 17.9036L117.687 19.2008L116.819 27.5023L116.879 27.5543L121.35 22.3431L123.1 23.8449L115.997 32.1246L114.461 30.8066L115.354 22.5334L115.282 22.471L110.814 27.6781L109.072 26.1833Z" fill="black"/>
<path d="M98.8778 15.556C98.8336 15.8221 98.8296 16.0739 98.8658 16.3115C98.9005 16.5523 98.9762 16.7772 99.0929 16.9863C99.2049 17.197 99.357 17.3895 99.5493 17.5638C99.7384 17.7366 99.9676 17.8871 100.237 18.0155C100.74 18.2554 101.242 18.3413 101.743 18.2731C102.24 18.2034 102.709 17.9801 103.148 17.6033C103.586 17.2298 103.968 16.7 104.295 16.014C104.622 15.328 104.796 14.695 104.817 14.1148C104.838 13.5347 104.718 13.027 104.457 12.592C104.195 12.1601 103.804 11.8204 103.285 11.5728C102.813 11.3482 102.371 11.2397 101.958 11.2475C101.541 11.2569 101.171 11.3735 100.848 11.5972C100.521 11.8194 100.258 12.1404 100.058 12.5603L99.6647 12.2961L102.203 13.5064L101.456 15.0739L97.3355 13.1095L97.9269 11.8689C98.3395 11.0034 98.8767 10.3469 99.5386 9.8992C100.199 9.45473 100.93 9.21702 101.731 9.18606C102.532 9.15831 103.345 9.34156 104.172 9.73581C105.095 10.1759 105.809 10.7661 106.314 11.5063C106.817 12.2497 107.085 13.0913 107.117 14.0311C107.144 14.9725 106.91 15.9625 106.415 17.0011C106.034 17.7992 105.58 18.4558 105.051 18.9709C104.517 19.4876 103.937 19.8639 103.309 20.0997C102.681 20.3354 102.034 20.4342 101.368 20.3959C100.702 20.3576 100.043 20.1833 99.3926 19.8731C98.8349 19.6072 98.3545 19.2779 97.9516 18.8852C97.5472 18.4957 97.2294 18.0649 96.9981 17.5927C96.7636 17.119 96.6248 16.6221 96.5817 16.1019C96.537 15.5849 96.5972 15.0668 96.7621 14.5474L98.8778 15.556Z" fill="black"/>
</svg>
