<svg width="154" height="138" viewBox="0 0 154 138" fill="none" xmlns="http://www.w3.org/2000/svg">
<circle cx="84.9401" cy="5.98267" r="5.5" fill="#7FE05D"/>
<circle cx="105.94" cy="5.98267" r="5.5" fill="#7FE05D"/>
<circle cx="126.94" cy="5.98267" r="5.5" fill="#7FE05D"/>
<circle cx="147.94" cy="5.98267" r="5.5" fill="#7FE05D"/>
<circle cx="84.9401" cy="23.9827" r="5.5" fill="#7FE05D"/>
<circle cx="105.94" cy="23.9827" r="5.5" fill="#7FE05D"/>
<circle cx="126.94" cy="23.9827" r="5.5" fill="#7FE05D"/>
<circle cx="147.94" cy="23.9827" r="5.5" fill="#7FE05D"/>
<circle cx="84.9401" cy="41.9827" r="5.5" fill="#7FE05D"/>
<circle cx="105.94" cy="41.9827" r="5.5" fill="#7FE05D"/>
<circle cx="126.94" cy="41.9827" r="5.5" fill="#7FE05D"/>
<circle cx="147.94" cy="41.9827" r="5.5" fill="#7FE05D"/>
<circle cx="84.9401" cy="59.9827" r="5.5" fill="#7FE05D"/>
<circle cx="105.94" cy="59.9827" r="5.5" fill="#7FE05D"/>
<circle cx="126.94" cy="59.9827" r="5.5" fill="#7FE05D"/>
<circle cx="147.94" cy="59.9827" r="5.5" fill="#7FE05D"/>
<circle cx="84.9401" cy="77.9827" r="5.5" fill="#7FE05D"/>
<circle cx="105.94" cy="77.9827" r="5.5" fill="#7FE05D"/>
<circle cx="126.94" cy="77.9827" r="5.5" fill="#7FE05D"/>
<circle cx="147.94" cy="77.9827" r="5.5" fill="#7FE05D"/>
<circle cx="84.9401" cy="95.9827" r="5.5" fill="#7FE05D"/>
<circle cx="105.94" cy="95.9827" r="5.5" fill="#7FE05D"/>
<circle cx="126.94" cy="95.9827" r="5.5" fill="#7FE05D"/>
<circle cx="147.94" cy="95.9827" r="5.5" fill="#7FE05D"/>
<circle cx="84.9401" cy="113.983" r="5.5" fill="#7FE05D"/>
<circle cx="105.94" cy="113.983" r="5.5" fill="#7FE05D"/>
<circle cx="126.94" cy="113.983" r="5.5" fill="#7FE05D"/>
<circle cx="147.94" cy="113.983" r="5.5" fill="#7FE05D"/>
<circle cx="84.9401" cy="131.983" r="5.5" fill="#7FE05D"/>
<circle cx="105.94" cy="131.983" r="5.5" fill="#7FE05D"/>
<circle cx="126.94" cy="131.983" r="5.5" fill="#7FE05D"/>
<circle cx="147.94" cy="131.983" r="5.5" fill="#7FE05D"/>
<circle cx="6.42444" cy="5.98267" r="5.5" fill="#7FE05D"/>
<circle cx="27.4244" cy="5.98267" r="5.5" fill="#7FE05D"/>
<circle cx="48.4244" cy="5.98267" r="5.5" fill="#7FE05D"/>
<circle cx="69.4244" cy="5.98267" r="5.5" fill="#7FE05D"/>
<circle cx="6.42444" cy="23.9827" r="5.5" fill="#7FE05D"/>
<circle cx="27.4244" cy="23.9827" r="5.5" fill="#7FE05D"/>
<circle cx="48.4244" cy="23.9827" r="5.5" fill="#7FE05D"/>
<circle cx="69.4244" cy="23.9827" r="5.5" fill="#7FE05D"/>
<circle cx="6.42444" cy="41.9827" r="5.5" fill="#7FE05D"/>
<circle cx="27.4244" cy="41.9827" r="5.5" fill="#7FE05D"/>
<circle cx="48.4244" cy="41.9827" r="5.5" fill="#7FE05D"/>
<circle cx="69.4244" cy="41.9827" r="5.5" fill="#7FE05D"/>
<circle cx="6.42444" cy="59.9827" r="5.5" fill="#7FE05D"/>
<circle cx="27.4244" cy="59.9827" r="5.5" fill="#7FE05D"/>
<circle cx="48.4244" cy="59.9827" r="5.5" fill="#7FE05D"/>
<circle cx="69.4244" cy="59.9827" r="5.5" fill="#7FE05D"/>
<circle cx="6.42444" cy="77.9827" r="5.5" fill="#7FE05D"/>
<circle cx="27.4244" cy="77.9827" r="5.5" fill="#7FE05D"/>
<circle cx="48.4244" cy="77.9827" r="5.5" fill="#7FE05D"/>
<circle cx="69.4244" cy="77.9827" r="5.5" fill="#7FE05D"/>
<circle cx="6.42444" cy="95.9827" r="5.5" fill="#7FE05D"/>
<circle cx="27.4244" cy="95.9827" r="5.5" fill="#7FE05D"/>
<circle cx="48.4244" cy="95.9827" r="5.5" fill="#7FE05D"/>
<circle cx="69.4244" cy="95.9827" r="5.5" fill="#7FE05D"/>
<circle cx="6.42444" cy="113.983" r="5.5" fill="#7FE05D"/>
<circle cx="27.4244" cy="113.983" r="5.5" fill="#7FE05D"/>
<circle cx="48.4244" cy="113.983" r="5.5" fill="#7FE05D"/>
<circle cx="69.4244" cy="113.983" r="5.5" fill="#7FE05D"/>
<circle cx="6.42444" cy="131.983" r="5.5" fill="#7FE05D"/>
<circle cx="27.4244" cy="131.983" r="5.5" fill="#7FE05D"/>
<circle cx="48.4244" cy="131.983" r="5.5" fill="#7FE05D"/>
<circle cx="69.4244" cy="131.983" r="5.5" fill="#7FE05D"/>
</svg>
